<svg>
    <g id="SvgjsG2388" featurekey="PG4fjM-0" transform="matrix(2.2146389774036606,0,0,2.2146389774036606,-75.73658269540545,-38.188177355240185)" fill="url(#SvgjsLinearGradient2392)"><path xmlns="http://www.w3.org/2000/svg" d="M65.399,29.492c-1.959-8.489-10.461-13.801-18.952-11.842c-8.49,1.96-13.802,10.462-11.842,18.952  c1.826,7.91,9.33,13.055,17.212,12.137l1.378,3.036c-1.198,0.749-1.861,2.191-1.525,3.645l3.888,16.84l0.18,0.099  c0.426,0.235,0.877,0.567,0.933,0.63c-0.003,0.151-0.263,0.665-0.543,1.079l-0.114,0.164l1.372,5.942  c0.423,1.83,2.256,2.977,4.085,2.553c1.831-0.422,2.977-2.255,2.554-4.085l-1.373-5.942l-0.174-0.1  c-0.433-0.247-0.89-0.596-0.946-0.664c0.007-0.146,0.268-0.644,0.547-1.041l0.119-0.167l-3.888-16.84  c-0.336-1.453-1.563-2.461-2.969-2.608l-0.092-3.333C62.737,45.315,67.226,37.402,65.399,29.492z M53.015,46.096  c-7.207,1.665-14.398-2.829-16.062-10.036c-1.665-7.207,2.83-14.399,10.037-16.063c7.207-1.664,14.399,2.83,16.063,10.037  C64.715,37.242,60.222,44.433,53.015,46.096z"></path><path xmlns="http://www.w3.org/2000/svg" d="M39.437,30.786c0.223-0.555,0.419-1.135,0.706-1.688c0.245-0.572,0.583-1.106,0.89-1.656  c0.36-0.517,0.692-1.054,1.099-1.523c0.373-0.499,0.807-0.931,1.208-1.375c0.458-0.374,0.843-0.822,1.295-1.138  c0.218-0.172,0.43-0.339,0.635-0.501c0.217-0.146,0.428-0.289,0.628-0.426c0.4-0.285,0.794-0.504,1.145-0.705  c0.349-0.208,0.661-0.384,0.93-0.5c0.529-0.26,0.838-0.428,0.838-0.428s-0.339,0.017-0.944,0.08  c-0.306,0.022-0.672,0.077-1.078,0.193c-0.415,0.099-0.889,0.209-1.37,0.424c-0.246,0.098-0.504,0.198-0.77,0.305  c-0.252,0.136-0.511,0.276-0.778,0.422c-0.551,0.271-1.059,0.675-1.603,1.066c-0.489,0.454-1.051,0.877-1.492,1.432  c-0.495,0.509-0.882,1.118-1.298,1.703c-0.345,0.63-0.72,1.246-0.96,1.913c-0.301,0.642-0.438,1.331-0.63,1.969  c-0.114,0.662-0.252,1.293-0.257,1.907c-0.012,0.305-0.026,0.6-0.038,0.885c0.022,0.285,0.042,0.562,0.063,0.825  c0.018,0.523,0.128,1.008,0.221,1.427c0.075,0.425,0.185,0.77,0.296,1.047c0.207,0.563,0.341,0.881,0.341,0.881  s0.016-0.346,0.015-0.944c-0.015-0.3,0.005-0.664,0.041-1.062c0.027-0.401,0.051-0.841,0.133-1.33  c0.034-0.239,0.069-0.49,0.106-0.75c0.055-0.256,0.112-0.52,0.171-0.791C39.065,31.903,39.301,31.362,39.437,30.786z"></path><path xmlns="http://www.w3.org/2000/svg" d="M50.395,27.6c-6.149,0-11.023,5.503-11.227,5.737l-0.287,0.329l0.287,0.329c0.204,0.234,5.078,5.737,11.227,5.737  s11.023-5.503,11.227-5.737l0.287-0.329l-0.287-0.329C61.418,33.103,56.544,27.6,50.395,27.6z M54.362,33.457  c0,2.188-1.78,3.967-3.967,3.967s-3.967-1.78-3.967-3.967s1.78-3.967,3.967-3.967S54.362,31.27,54.362,33.457z M50.395,38.731  c-4.859,0-9.023-3.895-10.165-5.066c1.03-1.058,4.522-4.326,8.772-4.952c-2.059,0.606-3.575,2.492-3.575,4.744  c0,2.739,2.229,4.967,4.967,4.967s4.967-2.229,4.967-4.967c0-2.251-1.515-4.136-3.573-4.743c4.244,0.628,7.74,3.895,8.771,4.952  C59.419,34.837,55.262,38.731,50.395,38.731z"></path><path xmlns="http://www.w3.org/2000/svg" d="M48.165,33.437c0-1.23,1-2.23,2.23-2.23v-1c-1.781,0-3.23,1.449-3.23,3.23H48.165z"></path></g>
</svg>